<svg width="20" height="20" viewBox="0 0 20 20" fill="none" xmlns="http://www.w3.org/2000/svg">
<g clip-path="url(#clip0_96_437)">
<mask id="mask0_96_437" style="mask-type:luminance" maskUnits="userSpaceOnUse" x="0" y="0" width="20" height="20">
<path d="M19.8079 8.14476H10.213V11.9894H15.7263C15.6377 12.5336 15.4387 13.0688 15.1472 13.5569C14.8133 14.1161 14.4006 14.5418 13.9775 14.866C12.7101 15.8372 11.2325 16.0358 10.2063 16.0358C7.61409 16.0358 5.39919 14.3604 4.54176 12.0838C4.50716 12.0012 4.48418 11.9159 4.4562 11.8315C4.26673 11.2521 4.1632 10.6384 4.1632 10.0006C4.1632 9.33685 4.27531 8.70145 4.47972 8.10134C5.28599 5.73451 7.55082 3.96672 10.2082 3.96672C10.7427 3.96672 11.2574 4.03034 11.7455 4.15724C12.861 4.44725 13.6501 5.01843 14.1336 5.47023L17.0511 2.61313C15.2764 0.985972 12.9629 2.46015e-09 10.2033 2.46015e-09C7.99721 -4.74827e-05 5.96042 0.687318 4.29133 1.84899C2.93776 2.79107 1.82764 4.0524 1.07844 5.5173C0.381576 6.87555 0 8.38075 0 9.99913C0 11.6176 0.382159 13.1384 1.07902 14.4841V14.4932C1.81508 15.9218 2.89146 17.1519 4.19967 18.0897C5.34254 18.9089 7.39181 20 10.2033 20C11.8202 20 13.2531 19.7085 14.5169 19.1622C15.4285 18.7681 16.2363 18.2541 16.9676 17.5935C17.9339 16.7206 18.6906 15.6409 19.2072 14.3987C19.7237 13.1565 20 11.7518 20 10.2289C20 9.51963 19.9288 8.79934 19.8079 8.14469V8.14476Z" fill="white"/>
</mask>
<g mask="url(#mask0_96_437)">
<g filter="url(#filter0_f_96_437)">
<path d="M-0.147217 10.067C-0.136611 11.66 0.317283 13.3034 1.00433 14.6302V14.6393C1.50075 15.6028 2.17922 16.3639 2.95198 17.118L7.61927 15.415C6.73625 14.9665 6.6015 14.6916 5.96852 14.1901C5.32167 13.5379 4.83956 12.789 4.53933 11.911H4.52723L4.53933 11.9019C4.34181 11.3221 4.32232 10.7067 4.31504 10.067H-0.147217Z" fill="url(#paint0_radial_96_437)"/>
</g>
<g filter="url(#filter1_f_96_437)">
<path d="M10.2131 -0.0727386C9.75178 1.54792 9.92816 3.12326 10.2131 4.03986C10.7458 4.04025 11.259 4.10375 11.7456 4.23026C12.8611 4.52027 13.6501 5.09147 14.1336 5.54327L17.1257 2.61317C15.3532 0.987954 13.22 -0.070178 10.2131 -0.0727386Z" fill="url(#paint1_radial_96_437)"/>
</g>
<g filter="url(#filter2_f_96_437)">
<path d="M10.203 -0.085556C7.94028 -0.085605 5.85121 0.619407 4.13928 1.8109C3.50364 2.25331 2.92032 2.76435 2.40092 3.33265C2.26485 4.6092 3.41952 6.17821 5.70612 6.16523C6.81557 4.87469 8.45642 4.03971 10.2827 4.03971C10.2844 4.03971 10.286 4.03985 10.2876 4.03986L10.2131 -0.085264C10.2097 -0.0852662 10.2064 -0.085556 10.203 -0.085556Z" fill="url(#paint2_radial_96_437)"/>
</g>
<g filter="url(#filter3_f_96_437)">
<path d="M17.6716 10.529L15.6519 11.9164C15.5633 12.4606 15.3641 12.9958 15.0727 13.4839C14.7388 14.0431 14.3261 14.4688 13.903 14.793C12.6382 15.7622 11.1645 15.9618 10.1386 15.9626C9.07826 17.7686 8.89235 18.6732 10.2132 20.1308C11.8476 20.1296 13.2966 19.8345 14.5747 19.2821C15.4986 18.8827 16.3171 18.3618 17.0582 17.6923C18.0375 16.8077 18.8045 15.7135 19.328 14.4546C19.8514 13.1958 20.1314 11.7723 20.1314 10.2289L17.6716 10.529Z" fill="url(#paint3_radial_96_437)"/>
</g>
<g filter="url(#filter4_f_96_437)">
<path d="M10.064 7.9987V12.1355H19.7811C19.8665 11.569 20.1492 10.8358 20.1492 10.2289C20.1492 9.51967 20.078 8.65335 19.9572 7.9987H10.064Z" fill="#3086FF"/>
</g>
<g filter="url(#filter5_f_96_437)">
<path d="M2.44735 3.1866C1.8477 3.84269 1.33542 4.57705 0.929239 5.37125C0.232389 6.7295 -0.14917 8.38076 -0.14917 9.99915C-0.14917 10.022 -0.147282 10.0443 -0.14713 10.067C0.161484 10.6588 4.11581 10.5454 4.31512 10.067C4.31487 10.0447 4.31236 10.0229 4.31236 10.0006C4.31236 9.33679 4.4245 8.84753 4.62891 8.24742C4.88107 7.50719 5.2759 6.82554 5.78078 6.23824C5.89523 6.09212 6.20051 5.778 6.28958 5.58959C6.32351 5.51782 6.22799 5.47754 6.22264 5.45228C6.21667 5.42402 6.08859 5.44674 6.0599 5.4257C5.9688 5.35887 5.7884 5.32398 5.67885 5.29296C5.44471 5.22666 5.05666 5.08046 4.84113 4.9289C4.15984 4.44983 3.09663 3.8776 2.44735 3.1866Z" fill="url(#paint4_radial_96_437)"/>
</g>
<g filter="url(#filter6_f_96_437)">
<path d="M4.85582 5.45511C6.43566 6.4121 6.88999 4.97206 7.94036 4.52144L6.11321 0.732407C5.44108 1.0149 4.80605 1.36588 4.21684 1.77596C3.33691 2.38839 2.55986 3.13573 1.91797 3.98621L4.85582 5.45511Z" fill="url(#paint5_radial_96_437)"/>
</g>
<g filter="url(#filter7_f_96_437)">
<path d="M5.49878 15.1223C3.37805 15.8879 3.04604 15.9154 2.85083 17.2297C3.22387 17.5937 3.62468 17.9304 4.0506 18.2357C5.19346 19.055 7.39185 20.1461 10.2034 20.1461C10.2067 20.1461 10.2098 20.1458 10.2131 20.1458V15.8896C10.211 15.8896 10.2086 15.8897 10.2064 15.8897C9.15362 15.8897 8.31231 15.6132 7.4497 15.1323C7.23702 15.0137 6.85116 15.3321 6.65502 15.1898C6.38448 14.9935 5.73342 15.3589 5.49878 15.1223Z" fill="url(#paint6_radial_96_437)"/>
</g>
<g opacity="0.5" filter="url(#filter8_f_96_437)">
<path d="M8.97119 15.7555V20.072C9.36457 20.1181 9.77397 20.1461 10.2034 20.1461C10.634 20.1461 11.0505 20.1239 11.4552 20.0833V15.7846C11.0016 15.8621 10.5745 15.8897 10.2065 15.8897C9.78269 15.8897 9.37054 15.8404 8.97119 15.7555Z" fill="url(#paint7_linear_96_437)"/>
</g>
</g>
</g>
<defs>
<filter id="filter0_f_96_437" x="-0.617296" y="9.59697" width="8.70676" height="7.99114" filterUnits="userSpaceOnUse" color-interpolation-filters="sRGB">
<feFlood flood-opacity="0" result="BackgroundImageFix"/>
<feBlend mode="normal" in="SourceGraphic" in2="BackgroundImageFix" result="shape"/>
<feGaussianBlur stdDeviation="0.23504" result="effect1_foregroundBlur_96_437"/>
</filter>
<filter id="filter1_f_96_437" x="9.45936" y="-0.542818" width="8.13645" height="6.55617" filterUnits="userSpaceOnUse" color-interpolation-filters="sRGB">
<feFlood flood-opacity="0" result="BackgroundImageFix"/>
<feBlend mode="normal" in="SourceGraphic" in2="BackgroundImageFix" result="shape"/>
<feGaussianBlur stdDeviation="0.23504" result="effect1_foregroundBlur_96_437"/>
</filter>
<filter id="filter2_f_96_437" x="1.92006" y="-0.555635" width="8.83762" height="7.19103" filterUnits="userSpaceOnUse" color-interpolation-filters="sRGB">
<feFlood flood-opacity="0" result="BackgroundImageFix"/>
<feBlend mode="normal" in="SourceGraphic" in2="BackgroundImageFix" result="shape"/>
<feGaussianBlur stdDeviation="0.23504" result="effect1_foregroundBlur_96_437"/>
</filter>
<filter id="filter3_f_96_437" x="8.81239" y="9.75883" width="11.789" height="10.842" filterUnits="userSpaceOnUse" color-interpolation-filters="sRGB">
<feFlood flood-opacity="0" result="BackgroundImageFix"/>
<feBlend mode="normal" in="SourceGraphic" in2="BackgroundImageFix" result="shape"/>
<feGaussianBlur stdDeviation="0.23504" result="effect1_foregroundBlur_96_437"/>
</filter>
<filter id="filter4_f_96_437" x="9.59389" y="7.52862" width="11.0254" height="5.07698" filterUnits="userSpaceOnUse" color-interpolation-filters="sRGB">
<feFlood flood-opacity="0" result="BackgroundImageFix"/>
<feBlend mode="normal" in="SourceGraphic" in2="BackgroundImageFix" result="shape"/>
<feGaussianBlur stdDeviation="0.23504" result="effect1_foregroundBlur_96_437"/>
</filter>
<filter id="filter5_f_96_437" x="-0.619249" y="2.71652" width="7.3862" height="8.22301" filterUnits="userSpaceOnUse" color-interpolation-filters="sRGB">
<feFlood flood-opacity="0" result="BackgroundImageFix"/>
<feBlend mode="normal" in="SourceGraphic" in2="BackgroundImageFix" result="shape"/>
<feGaussianBlur stdDeviation="0.23504" result="effect1_foregroundBlur_96_437"/>
</filter>
<filter id="filter6_f_96_437" x="-1.38688" y="-2.57244" width="12.6322" height="11.654" filterUnits="userSpaceOnUse" color-interpolation-filters="sRGB">
<feFlood flood-opacity="0" result="BackgroundImageFix"/>
<feBlend mode="normal" in="SourceGraphic" in2="BackgroundImageFix" result="shape"/>
<feGaussianBlur stdDeviation="1.65243" result="effect1_foregroundBlur_96_437"/>
</filter>
<filter id="filter7_f_96_437" x="2.38075" y="14.6352" width="8.30246" height="5.98096" filterUnits="userSpaceOnUse" color-interpolation-filters="sRGB">
<feFlood flood-opacity="0" result="BackgroundImageFix"/>
<feBlend mode="normal" in="SourceGraphic" in2="BackgroundImageFix" result="shape"/>
<feGaussianBlur stdDeviation="0.23504" result="effect1_foregroundBlur_96_437"/>
</filter>
<filter id="filter8_f_96_437" x="8.50111" y="15.2854" width="3.42429" height="5.33072" filterUnits="userSpaceOnUse" color-interpolation-filters="sRGB">
<feFlood flood-opacity="0" result="BackgroundImageFix"/>
<feBlend mode="normal" in="SourceGraphic" in2="BackgroundImageFix" result="shape"/>
<feGaussianBlur stdDeviation="0.23504" result="effect1_foregroundBlur_96_437"/>
</filter>
<radialGradient id="paint0_radial_96_437" cx="0" cy="0" r="1" gradientTransform="matrix(-0.415601 -9.95993 14.9426 -0.597686 7.52584 16.968)" gradientUnits="userSpaceOnUse">
<stop offset="0.141612" stop-color="#1ABD4D"/>
<stop offset="0.247515" stop-color="#6EC30D"/>
<stop offset="0.311547" stop-color="#8AC502"/>
<stop offset="0.366013" stop-color="#A2C600"/>
<stop offset="0.445673" stop-color="#C8C903"/>
<stop offset="0.540305" stop-color="#EBCB03"/>
<stop offset="0.615636" stop-color="#F7CD07"/>
<stop offset="0.699345" stop-color="#FDCD04"/>
<stop offset="0.771242" stop-color="#FDCE05"/>
<stop offset="0.860566" stop-color="#FFCE0A"/>
</radialGradient>
<radialGradient id="paint1_radial_96_437" cx="0" cy="0" r="1" gradientTransform="matrix(7.05806 -1.69631e-05 -9.92038e-06 8.92438 16.8458 5.33126)" gradientUnits="userSpaceOnUse">
<stop offset="0.408458" stop-color="#FB4E5A"/>
<stop offset="1" stop-color="#FF4540"/>
</radialGradient>
<radialGradient id="paint2_radial_96_437" cx="0" cy="0" r="1" gradientTransform="matrix(-9.88885 5.36243 7.4323 13.1383 12.9913 -1.37739)" gradientUnits="userSpaceOnUse">
<stop offset="0.231273" stop-color="#FF4541"/>
<stop offset="0.311547" stop-color="#FF4540"/>
<stop offset="0.457516" stop-color="#FF4640"/>
<stop offset="0.540305" stop-color="#FF473F"/>
<stop offset="0.699346" stop-color="#FF5138"/>
<stop offset="0.771242" stop-color="#FF5B33"/>
<stop offset="0.860566" stop-color="#FF6C29"/>
<stop offset="1" stop-color="#FF8C18"/>
</radialGradient>
<radialGradient id="paint3_radial_96_437" cx="0" cy="0" r="1" gradientTransform="matrix(-17.9337 -22.9206 -8.64137 6.48127 10.3602 18.8364)" gradientUnits="userSpaceOnUse">
<stop offset="0.131546" stop-color="#0CBA65"/>
<stop offset="0.209784" stop-color="#0BB86D"/>
<stop offset="0.297297" stop-color="#09B479"/>
<stop offset="0.396257" stop-color="#08AD93"/>
<stop offset="0.477124" stop-color="#0AA6A9"/>
<stop offset="0.568425" stop-color="#0D9CC6"/>
<stop offset="0.667385" stop-color="#1893DD"/>
<stop offset="0.768727" stop-color="#258BF1"/>
<stop offset="0.858506" stop-color="#3086FF"/>
</radialGradient>
<radialGradient id="paint4_radial_96_437" cx="0" cy="0" r="1" gradientTransform="matrix(-1.26913 10.7101 15.1251 1.71807 9.33674 1.80338)" gradientUnits="userSpaceOnUse">
<stop offset="0.366013" stop-color="#FF4E3A"/>
<stop offset="0.457516" stop-color="#FF8A1B"/>
<stop offset="0.540305" stop-color="#FFA312"/>
<stop offset="0.615636" stop-color="#FFB60C"/>
<stop offset="0.771242" stop-color="#FFCD0A"/>
<stop offset="0.860566" stop-color="#FECF0A"/>
<stop offset="0.915033" stop-color="#FECF08"/>
<stop offset="1" stop-color="#FDCD01"/>
</radialGradient>
<radialGradient id="paint5_radial_96_437" cx="0" cy="0" r="1" gradientTransform="matrix(-3.66844 3.97231 -11.4435 -10.1305 7.55207 1.69229)" gradientUnits="userSpaceOnUse">
<stop offset="0.315904" stop-color="#FF4C3C"/>
<stop offset="0.603818" stop-color="#FF692C"/>
<stop offset="0.726837" stop-color="#FF7825"/>
<stop offset="0.884534" stop-color="#FF8D1B"/>
<stop offset="1" stop-color="#FF9F13"/>
</radialGradient>
<radialGradient id="paint6_radial_96_437" cx="0" cy="0" r="1" gradientTransform="matrix(-9.88885 -5.36243 7.4323 -13.1383 12.9914 21.3771)" gradientUnits="userSpaceOnUse">
<stop offset="0.231273" stop-color="#0FBC5F"/>
<stop offset="0.311547" stop-color="#0FBC5F"/>
<stop offset="0.366013" stop-color="#0FBC5E"/>
<stop offset="0.457516" stop-color="#0FBC5D"/>
<stop offset="0.540305" stop-color="#12BC58"/>
<stop offset="0.699346" stop-color="#28BF3C"/>
<stop offset="0.771242" stop-color="#38C02B"/>
<stop offset="0.860566" stop-color="#52C218"/>
<stop offset="0.915033" stop-color="#67C30F"/>
<stop offset="1" stop-color="#86C504"/>
</radialGradient>
<linearGradient id="paint7_linear_96_437" x1="8.97119" y1="17.9508" x2="11.4552" y2="17.9508" gradientUnits="userSpaceOnUse">
<stop stop-color="#0FBC5C"/>
<stop offset="1" stop-color="#0CBA65"/>
</linearGradient>
<clipPath id="clip0_96_437">
<rect width="20" height="20" fill="white"/>
</clipPath>
</defs>
</svg>
